<?xml version="1.0" encoding="UTF-8"?>
<svg xmlns="http://www.w3.org/2000/svg" xmlns:xlink="http://www.w3.org/1999/xlink" width="26px" height="26px" viewBox="0 0 26 26" version="1.1">
<g id="surface1">
<path style=" stroke:none;fill-rule:nonzero;fill:rgb(0%,0%,0%);fill-opacity:1;" d="M 4.773438 4.957031 C 4.867188 4.957031 4.964844 4.957031 5.0625 4.957031 C 5.320312 4.957031 5.578125 4.957031 5.839844 4.957031 C 6.113281 4.957031 6.382812 4.957031 6.65625 4.957031 C 7.113281 4.957031 7.570312 4.957031 8.023438 4.957031 C 8.550781 4.957031 9.082031 4.957031 9.609375 4.957031 C 10.0625 4.957031 10.515625 4.957031 10.96875 4.957031 C 11.238281 4.957031 11.511719 4.957031 11.78125 4.957031 C 12.035156 4.957031 12.289062 4.957031 12.542969 4.957031 C 12.636719 4.957031 12.730469 4.957031 12.824219 4.957031 C 12.949219 4.957031 13.078125 4.957031 13.203125 4.957031 C 13.242188 4.957031 13.277344 4.957031 13.316406 4.957031 C 13.550781 4.957031 13.714844 5.003906 13.914062 5.128906 C 14.089844 5.359375 14.152344 5.539062 14.136719 5.828125 C 14.097656 6.0625 13.996094 6.234375 13.804688 6.382812 C 13.625 6.464844 13.472656 6.46875 13.277344 6.46875 C 13.242188 6.46875 13.203125 6.46875 13.164062 6.46875 C 13.035156 6.46875 12.910156 6.46875 12.78125 6.46875 C 12.691406 6.46875 12.601562 6.46875 12.507812 6.46875 C 12.3125 6.472656 12.117188 6.472656 11.921875 6.472656 C 11.609375 6.472656 11.296875 6.472656 10.988281 6.472656 C 10.382812 6.476562 9.78125 6.476562 9.175781 6.476562 C 8.40625 6.480469 7.640625 6.480469 6.871094 6.484375 C 6.5625 6.484375 6.253906 6.484375 5.945312 6.484375 C 5.753906 6.484375 5.5625 6.484375 5.367188 6.484375 C 5.28125 6.484375 5.191406 6.484375 5.101562 6.484375 C 4.296875 6.484375 3.5625 6.523438 2.941406 7.09375 C 2.589844 7.515625 2.429688 7.996094 2.429688 8.539062 C 2.429688 8.578125 2.429688 8.621094 2.429688 8.664062 C 2.429688 8.804688 2.429688 8.945312 2.429688 9.085938 C 2.429688 9.1875 2.429688 9.289062 2.429688 9.386719 C 2.429688 9.664062 2.425781 9.9375 2.425781 10.210938 C 2.425781 10.382812 2.425781 10.554688 2.425781 10.722656 C 2.425781 11.261719 2.425781 11.796875 2.425781 12.332031 C 2.425781 12.949219 2.425781 13.566406 2.421875 14.1875 C 2.421875 14.664062 2.421875 15.144531 2.421875 15.621094 C 2.421875 15.90625 2.421875 16.191406 2.417969 16.476562 C 2.417969 16.746094 2.417969 17.015625 2.417969 17.28125 C 2.417969 17.382812 2.417969 17.480469 2.417969 17.578125 C 2.402344 18.429688 2.402344 18.429688 2.75 19.191406 C 2.839844 19.316406 2.894531 19.402344 2.945312 19.550781 C 3.039062 19.605469 3.039062 19.605469 3.148438 19.652344 C 3.269531 19.730469 3.390625 19.804688 3.511719 19.882812 C 3.816406 20.039062 4.125 20.074219 4.460938 20.070312 C 4.519531 20.070312 4.519531 20.070312 4.574219 20.070312 C 4.65625 20.074219 4.738281 20.074219 4.820312 20.074219 C 4.945312 20.074219 5.074219 20.074219 5.203125 20.074219 C 5.566406 20.078125 5.933594 20.078125 6.296875 20.078125 C 6.519531 20.078125 6.746094 20.078125 6.96875 20.082031 C 7.054688 20.082031 7.136719 20.082031 7.222656 20.082031 C 7.34375 20.082031 7.460938 20.082031 7.578125 20.082031 C 7.632812 20.082031 7.632812 20.082031 7.683594 20.082031 C 7.957031 20.085938 8.109375 20.160156 8.328125 20.3125 C 8.585938 20.597656 8.554688 20.972656 8.539062 21.335938 C 8.535156 21.421875 8.535156 21.421875 8.535156 21.511719 C 8.527344 21.695312 8.523438 21.878906 8.515625 22.0625 C 8.507812 22.246094 8.503906 22.429688 8.5 22.617188 C 8.496094 22.730469 8.492188 22.847656 8.488281 22.960938 C 8.484375 23.011719 8.484375 23.066406 8.484375 23.117188 C 8.480469 23.164062 8.480469 23.207031 8.476562 23.253906 C 8.46875 23.359375 8.46875 23.359375 8.53125 23.410156 C 8.730469 23.429688 8.824219 23.40625 8.976562 23.28125 C 9.011719 23.25 9.046875 23.222656 9.082031 23.195312 C 9.121094 23.164062 9.160156 23.132812 9.199219 23.097656 C 9.28125 23.03125 9.363281 22.96875 9.445312 22.902344 C 9.488281 22.867188 9.527344 22.832031 9.574219 22.800781 C 9.769531 22.644531 9.96875 22.496094 10.171875 22.351562 C 10.515625 22.097656 10.859375 21.839844 11.195312 21.582031 C 11.65625 21.230469 12.121094 20.886719 12.589844 20.542969 C 12.730469 20.4375 12.871094 20.328125 13.011719 20.21875 C 13.164062 20.117188 13.296875 20.101562 13.472656 20.101562 C 13.519531 20.101562 13.5625 20.101562 13.609375 20.101562 C 13.683594 20.101562 13.683594 20.101562 13.757812 20.101562 C 13.808594 20.101562 13.859375 20.101562 13.914062 20.101562 C 14.027344 20.101562 14.140625 20.097656 14.25 20.097656 C 14.429688 20.097656 14.609375 20.097656 14.785156 20.097656 C 15.292969 20.09375 15.800781 20.089844 16.308594 20.089844 C 16.617188 20.089844 16.925781 20.085938 17.238281 20.082031 C 17.355469 20.082031 17.472656 20.082031 17.589844 20.082031 C 17.757812 20.082031 17.921875 20.082031 18.085938 20.078125 C 18.136719 20.078125 18.183594 20.078125 18.234375 20.082031 C 18.796875 20.074219 19.316406 19.902344 19.742188 19.519531 C 20.0625 19.175781 20.265625 18.742188 20.269531 18.273438 C 20.269531 18.191406 20.269531 18.191406 20.269531 18.113281 C 20.269531 18.054688 20.269531 17.996094 20.269531 17.9375 C 20.269531 17.875 20.269531 17.8125 20.269531 17.75 C 20.269531 17.617188 20.273438 17.484375 20.273438 17.351562 C 20.273438 17.140625 20.273438 16.929688 20.273438 16.71875 C 20.277344 16.121094 20.28125 15.523438 20.28125 14.921875 C 20.28125 14.59375 20.285156 14.261719 20.285156 13.929688 C 20.289062 13.753906 20.289062 13.582031 20.289062 13.40625 C 20.289062 13.210938 20.289062 13.015625 20.292969 12.820312 C 20.292969 12.761719 20.292969 12.703125 20.289062 12.644531 C 20.292969 12.320312 20.316406 12.023438 20.464844 11.730469 C 20.65625 11.542969 20.792969 11.46875 21.058594 11.460938 C 21.328125 11.464844 21.46875 11.515625 21.683594 11.679688 C 21.886719 11.96875 21.855469 12.28125 21.855469 12.621094 C 21.855469 12.714844 21.855469 12.714844 21.855469 12.8125 C 21.855469 12.988281 21.855469 13.164062 21.855469 13.335938 C 21.855469 13.519531 21.855469 13.703125 21.855469 13.886719 C 21.855469 14.195312 21.855469 14.503906 21.855469 14.8125 C 21.855469 15.167969 21.855469 15.523438 21.855469 15.878906 C 21.855469 16.183594 21.855469 16.492188 21.855469 16.796875 C 21.855469 16.980469 21.855469 17.160156 21.855469 17.34375 C 21.855469 17.546875 21.855469 17.753906 21.855469 17.957031 C 21.855469 18.015625 21.855469 18.074219 21.855469 18.136719 C 21.851562 18.683594 21.757812 19.214844 21.503906 19.707031 C 21.488281 19.738281 21.472656 19.773438 21.453125 19.808594 C 21.261719 20.164062 21.007812 20.441406 20.71875 20.71875 C 20.667969 20.769531 20.667969 20.769531 20.617188 20.824219 C 20.027344 21.394531 19.144531 21.644531 18.339844 21.632812 C 18.292969 21.632812 18.25 21.632812 18.207031 21.632812 C 18.109375 21.628906 18.011719 21.628906 17.914062 21.628906 C 17.863281 21.628906 17.8125 21.625 17.757812 21.625 C 17.425781 21.621094 17.09375 21.621094 16.761719 21.621094 C 16.472656 21.617188 16.179688 21.617188 15.890625 21.609375 C 15.609375 21.605469 15.324219 21.605469 15.042969 21.605469 C 14.9375 21.605469 14.832031 21.601562 14.722656 21.601562 C 13.910156 21.578125 13.449219 21.773438 12.839844 22.3125 C 12.714844 22.421875 12.585938 22.519531 12.453125 22.617188 C 12.371094 22.679688 12.292969 22.738281 12.210938 22.800781 C 11.839844 23.085938 11.460938 23.371094 11.078125 23.648438 C 10.863281 23.808594 10.644531 23.96875 10.433594 24.136719 C 10.382812 24.171875 10.335938 24.210938 10.289062 24.246094 C 10.195312 24.316406 10.105469 24.386719 10.015625 24.460938 C 9.453125 24.890625 8.984375 25.046875 8.277344 24.984375 C 7.8125 24.859375 7.445312 24.632812 7.171875 24.238281 C 6.863281 23.683594 6.894531 23.128906 6.921875 22.511719 C 6.925781 22.425781 6.929688 22.339844 6.929688 22.253906 C 6.9375 22.046875 6.949219 21.839844 6.957031 21.632812 C 6.902344 21.632812 6.902344 21.632812 6.851562 21.632812 C 6.515625 21.636719 6.179688 21.640625 5.84375 21.640625 C 5.671875 21.640625 5.5 21.640625 5.328125 21.644531 C 3.503906 21.660156 3.503906 21.660156 2.824219 21.289062 C 2.773438 21.261719 2.773438 21.261719 2.722656 21.234375 C 2.453125 21.089844 2.207031 20.925781 1.980469 20.71875 C 1.949219 20.691406 1.917969 20.664062 1.886719 20.636719 C 1.25 20.046875 0.890625 19.164062 0.847656 18.304688 C 0.839844 18.039062 0.84375 17.773438 0.84375 17.503906 C 0.84375 17.402344 0.84375 17.300781 0.84375 17.199219 C 0.84375 16.925781 0.84375 16.648438 0.84375 16.375 C 0.84375 16.085938 0.84375 15.796875 0.84375 15.507812 C 0.84375 15.023438 0.84375 14.535156 0.84375 14.050781 C 0.84375 13.492188 0.84375 12.933594 0.84375 12.371094 C 0.84375 11.890625 0.84375 11.410156 0.84375 10.925781 C 0.84375 10.640625 0.84375 10.351562 0.84375 10.066406 C 0.84375 9.792969 0.84375 9.523438 0.84375 9.253906 C 0.84375 9.15625 0.84375 9.058594 0.84375 8.957031 C 0.839844 7.90625 1.007812 7.042969 1.675781 6.195312 C 1.714844 6.144531 1.75 6.089844 1.789062 6.035156 C 2.621094 5.167969 3.625 4.953125 4.773438 4.957031 Z M 4.773438 4.957031 "/>
<path style=" stroke:none;fill-rule:nonzero;fill:rgb(0%,0%,0%);fill-opacity:1;" d="M 20.457031 1.042969 C 20.503906 1.050781 20.550781 1.058594 20.601562 1.0625 C 21.046875 1.207031 21.300781 1.476562 21.527344 1.871094 C 21.601562 1.992188 21.675781 2.113281 21.75 2.234375 C 21.816406 2.351562 21.875 2.46875 21.933594 2.589844 C 22.089844 2.902344 22.230469 3.171875 22.566406 3.308594 C 22.828125 3.390625 23.097656 3.4375 23.367188 3.484375 C 23.503906 3.511719 23.640625 3.539062 23.777344 3.566406 C 23.863281 3.585938 23.945312 3.601562 24.03125 3.617188 C 24.398438 3.6875 24.640625 3.867188 24.898438 4.132812 C 25.128906 4.488281 25.195312 4.828125 25.113281 5.242188 C 24.980469 5.671875 24.652344 5.980469 24.355469 6.304688 C 24.167969 6.515625 23.992188 6.738281 23.816406 6.957031 C 23.789062 6.988281 23.761719 7.019531 23.734375 7.050781 C 23.648438 7.183594 23.648438 7.246094 23.660156 7.402344 C 23.664062 7.472656 23.664062 7.472656 23.667969 7.542969 C 23.667969 7.59375 23.671875 7.644531 23.675781 7.695312 C 23.679688 7.773438 23.679688 7.773438 23.683594 7.855469 C 23.699219 8.101562 23.714844 8.351562 23.734375 8.601562 C 23.773438 9.136719 23.804688 9.578125 23.453125 10.023438 C 23.183594 10.304688 22.902344 10.417969 22.511719 10.4375 C 22.046875 10.433594 21.652344 10.238281 21.234375 10.050781 C 21.113281 10 20.996094 9.949219 20.875 9.898438 C 20.804688 9.867188 20.730469 9.835938 20.65625 9.800781 C 20.34375 9.667969 20.136719 9.703125 19.824219 9.816406 C 19.757812 9.84375 19.695312 9.871094 19.628906 9.898438 C 19.558594 9.929688 19.484375 9.960938 19.414062 9.988281 C 19.300781 10.035156 19.191406 10.082031 19.078125 10.132812 C 18.570312 10.347656 18.074219 10.546875 17.523438 10.359375 C 17.152344 10.199219 16.945312 9.972656 16.789062 9.601562 C 16.730469 9.40625 16.738281 9.210938 16.746094 9.011719 C 16.746094 8.964844 16.746094 8.921875 16.746094 8.875 C 16.75 8.617188 16.761719 8.359375 16.78125 8.101562 C 16.789062 8.046875 16.792969 7.992188 16.796875 7.933594 C 16.804688 7.820312 16.816406 7.710938 16.828125 7.597656 C 16.851562 7.347656 16.855469 7.179688 16.710938 6.964844 C 16.578125 6.820312 16.441406 6.6875 16.300781 6.550781 C 15.382812 5.496094 15.382812 5.496094 15.316406 4.914062 C 15.363281 4.453125 15.507812 4.148438 15.859375 3.851562 C 16.097656 3.6875 16.355469 3.632812 16.632812 3.566406 C 16.691406 3.550781 16.75 3.535156 16.8125 3.519531 C 17.058594 3.457031 17.300781 3.398438 17.558594 3.375 C 17.835938 3.34375 18.035156 3.304688 18.226562 3.089844 C 18.425781 2.816406 18.59375 2.527344 18.757812 2.230469 C 19.011719 1.773438 19.261719 1.347656 19.734375 1.097656 C 19.984375 1.03125 20.199219 1.007812 20.457031 1.042969 Z M 20.210938 2.792969 C 20.160156 2.867188 20.109375 2.941406 20.0625 3.019531 C 20.03125 3.066406 20.003906 3.117188 19.972656 3.164062 C 19.9375 3.214844 19.90625 3.265625 19.875 3.320312 C 19.691406 3.613281 19.507812 3.90625 19.316406 4.191406 C 19.289062 4.230469 19.261719 4.273438 19.234375 4.3125 C 19.027344 4.554688 18.765625 4.613281 18.464844 4.683594 C 18.425781 4.695312 18.386719 4.703125 18.34375 4.714844 C 18.214844 4.746094 18.089844 4.777344 17.960938 4.808594 C 17.875 4.828125 17.785156 4.851562 17.699219 4.871094 C 17.488281 4.925781 17.273438 4.976562 17.0625 5.027344 C 17.226562 5.253906 17.394531 5.472656 17.585938 5.679688 C 17.644531 5.742188 17.644531 5.742188 17.703125 5.808594 C 17.785156 5.898438 17.867188 5.988281 17.953125 6.078125 C 17.992188 6.125 18.03125 6.171875 18.074219 6.222656 C 18.113281 6.261719 18.148438 6.304688 18.1875 6.347656 C 18.453125 6.78125 18.382812 7.269531 18.339844 7.757812 C 18.328125 7.886719 18.316406 8.015625 18.308594 8.144531 C 18.300781 8.203125 18.296875 8.261719 18.292969 8.320312 C 18.28125 8.476562 18.28125 8.628906 18.28125 8.785156 C 18.316406 8.769531 18.351562 8.757812 18.386719 8.742188 C 19.519531 8.28125 19.519531 8.28125 19.929688 8.136719 C 19.976562 8.121094 20.019531 8.105469 20.066406 8.089844 C 20.519531 8.039062 20.964844 8.289062 21.371094 8.460938 C 21.496094 8.511719 21.617188 8.566406 21.742188 8.617188 C 21.792969 8.636719 21.847656 8.660156 21.902344 8.683594 C 22.039062 8.742188 22.039062 8.742188 22.191406 8.734375 C 22.191406 8.703125 22.1875 8.671875 22.1875 8.640625 C 22.167969 8.285156 22.152344 7.925781 22.140625 7.566406 C 22.140625 7.519531 22.136719 7.472656 22.136719 7.425781 C 22.128906 7.300781 22.128906 7.179688 22.125 7.054688 C 22.125 7.019531 22.121094 6.984375 22.121094 6.945312 C 22.117188 6.539062 22.378906 6.296875 22.632812 6.007812 C 22.898438 5.703125 23.15625 5.394531 23.410156 5.078125 C 23.230469 4.972656 23.046875 4.933594 22.84375 4.886719 C 22.769531 4.867188 22.699219 4.851562 22.625 4.832031 C 22.515625 4.804688 22.402344 4.78125 22.289062 4.753906 C 22.179688 4.726562 22.070312 4.703125 21.960938 4.675781 C 21.894531 4.660156 21.828125 4.644531 21.761719 4.628906 C 21.445312 4.523438 21.261719 4.378906 21.089844 4.09375 C 21.058594 4.039062 21.027344 3.988281 20.992188 3.933594 C 20.960938 3.878906 20.925781 3.824219 20.894531 3.765625 C 20.828125 3.660156 20.761719 3.550781 20.695312 3.441406 C 20.664062 3.390625 20.632812 3.339844 20.601562 3.289062 C 20.496094 3.117188 20.382812 2.953125 20.261719 2.792969 C 20.246094 2.792969 20.226562 2.792969 20.210938 2.792969 Z M 20.210938 2.792969 "/>
<path style=" stroke:none;fill-rule:nonzero;fill:rgb(0%,0%,0%);fill-opacity:1;" d="M 7.800781 10.65625 C 7.835938 10.65625 7.867188 10.65625 7.902344 10.65625 C 8.011719 10.65625 8.125 10.65625 8.234375 10.65625 C 8.3125 10.65625 8.394531 10.65625 8.472656 10.65625 C 8.6875 10.65625 8.902344 10.65625 9.121094 10.65625 C 9.253906 10.65625 9.390625 10.65625 9.523438 10.65625 C 9.996094 10.65625 10.464844 10.65625 10.9375 10.65625 C 11.375 10.65625 11.8125 10.652344 12.25 10.652344 C 12.628906 10.652344 13.003906 10.652344 13.378906 10.652344 C 13.605469 10.652344 13.832031 10.652344 14.054688 10.652344 C 14.265625 10.652344 14.476562 10.652344 14.691406 10.652344 C 14.765625 10.652344 14.84375 10.652344 14.921875 10.652344 C 15.027344 10.652344 15.132812 10.652344 15.242188 10.652344 C 15.300781 10.652344 15.359375 10.652344 15.421875 10.652344 C 15.683594 10.671875 15.882812 10.714844 16.089844 10.886719 C 16.269531 11.105469 16.320312 11.234375 16.3125 11.527344 C 16.285156 11.757812 16.1875 11.898438 16.019531 12.050781 C 15.816406 12.191406 15.703125 12.195312 15.457031 12.195312 C 15.425781 12.195312 15.390625 12.195312 15.355469 12.195312 C 15.238281 12.195312 15.121094 12.195312 15.003906 12.195312 C 14.917969 12.195312 14.835938 12.195312 14.753906 12.199219 C 14.523438 12.199219 14.296875 12.199219 14.070312 12.199219 C 13.929688 12.199219 13.785156 12.199219 13.644531 12.199219 C 13.199219 12.203125 12.753906 12.203125 12.3125 12.203125 C 11.796875 12.203125 11.285156 12.203125 10.769531 12.207031 C 10.375 12.207031 9.976562 12.207031 9.582031 12.207031 C 9.34375 12.207031 9.109375 12.210938 8.871094 12.210938 C 8.648438 12.210938 8.425781 12.210938 8.203125 12.210938 C 8.121094 12.210938 8.039062 12.210938 7.957031 12.210938 C 7.84375 12.214844 7.734375 12.214844 7.621094 12.210938 C 7.558594 12.210938 7.496094 12.210938 7.433594 12.210938 C 7.167969 12.171875 7.011719 12.046875 6.835938 11.847656 C 6.730469 11.628906 6.710938 11.460938 6.753906 11.222656 C 6.824219 11.03125 6.917969 10.898438 7.082031 10.773438 C 7.320312 10.667969 7.542969 10.65625 7.800781 10.65625 Z M 7.800781 10.65625 "/>
<path style=" stroke:none;fill-rule:nonzero;fill:rgb(0%,0%,0%);fill-opacity:1;" d="M 7.75 14.363281 C 7.792969 14.363281 7.839844 14.363281 7.882812 14.363281 C 8.03125 14.363281 8.179688 14.359375 8.328125 14.359375 C 8.429688 14.359375 8.53125 14.359375 8.636719 14.359375 C 8.851562 14.359375 9.066406 14.359375 9.28125 14.359375 C 9.558594 14.359375 9.832031 14.355469 10.109375 14.355469 C 10.320312 14.355469 10.53125 14.355469 10.746094 14.355469 C 10.847656 14.355469 10.949219 14.355469 11.050781 14.351562 C 11.191406 14.351562 11.335938 14.351562 11.476562 14.351562 C 11.539062 14.351562 11.539062 14.351562 11.605469 14.351562 C 11.933594 14.355469 12.140625 14.429688 12.382812 14.664062 C 12.542969 14.90625 12.558594 15.078125 12.519531 15.363281 C 12.421875 15.585938 12.285156 15.710938 12.085938 15.84375 C 11.890625 15.910156 11.703125 15.902344 11.496094 15.902344 C 11.453125 15.902344 11.40625 15.902344 11.363281 15.902344 C 11.214844 15.902344 11.066406 15.90625 10.917969 15.90625 C 10.816406 15.90625 10.714844 15.90625 10.609375 15.90625 C 10.394531 15.90625 10.179688 15.90625 9.964844 15.90625 C 9.6875 15.90625 9.414062 15.910156 9.136719 15.910156 C 8.925781 15.910156 8.714844 15.910156 8.5 15.910156 C 8.398438 15.910156 8.296875 15.910156 8.195312 15.914062 C 8.054688 15.914062 7.910156 15.914062 7.769531 15.914062 C 7.726562 15.914062 7.683594 15.914062 7.640625 15.914062 C 7.394531 15.914062 7.222656 15.878906 7.007812 15.742188 C 6.78125 15.492188 6.734375 15.339844 6.738281 15.007812 C 6.765625 14.773438 6.890625 14.632812 7.0625 14.480469 C 7.28125 14.347656 7.5 14.363281 7.75 14.363281 Z M 7.75 14.363281 "/>
</g>
</svg>
